HIERARCHY
ROOT Hips
{
	OFFSET 0.000000 0.000000 0.000000 
	CHANNELS 6 Xposition Yposition Zposition Zrotation Yrotation Xrotation
	JOINT LeftUpLeg
	{
		OFFSET 1.363060 -1.794630 0.839290 
		CHANNELS 3 Zrotation Yrotation Xrotation
		JOINT LeftLeg
		{
			OFFSET 2.448110 -6.726130 0.000000 
			CHANNELS 3 Zrotation Yrotation Xrotation
			JOINT LeftFoot
			{
				OFFSET 2.562200 -7.039590 0.000000 
				CHANNELS 3 Zrotation Yrotation Xrotation
				JOINT LeftToeBase
				{
					OFFSET 0.157640 -0.433110 2.322550 
					CHANNELS 3 Zrotation Yrotation Xrotation
					End Site
					{
						OFFSET 0.000000 0.000000 0.000000 
					}
				}
			}
		}
	}
	JOINT RightUpLeg
	{
		OFFSET -1.305520 -1.794630 0.839290 
		CHANNELS 3 Zrotation Yrotation Xrotation
		JOINT RightLeg
		{
			OFFSET -2.542530 -6.985550 0.000000 
			CHANNELS 3 Zrotation Yrotation Xrotation
			JOINT RightFoot
			{
				OFFSET -2.568260 -7.056230 0.000000 
				CHANNELS 3 Zrotation Yrotation Xrotation
				JOINT RightToeBase
				{
					OFFSET -0.164730 -0.452590 2.363150 
					CHANNELS 3 Zrotation Yrotation Xrotation
					End Site
					{
						OFFSET 0.000000 0.000000 0.000000 
					}
				}
			}
		}
	}
	JOINT Spine
	{
		OFFSET 0.028270 2.035590 -0.193380 
		CHANNELS 3 Zrotation Yrotation Xrotation
		JOINT Spine1
		{
			OFFSET 0.056720 2.048850 -0.042750 
			CHANNELS 3 Zrotation Yrotation Xrotation
			JOINT Neck1
			{
				OFFSET -0.054170 1.746240 0.172020 
				CHANNELS 3 Zrotation Yrotation Xrotation
				JOINT Head
				{
					OFFSET 0.104070 1.761360 -0.123970 
					CHANNELS 3 Zrotation Yrotation Xrotation
					End Site
					{
						OFFSET 0.000000 0.000000 0.000000 
					}
				}
			}
			JOINT LeftArm
			{
				OFFSET 3.362410 1.200890 -0.311210 
				CHANNELS 3 Zrotation Yrotation Xrotation
				JOINT LeftForeArm
				{
					OFFSET 4.983000 -0.000000 -0.000000 
					CHANNELS 3 Zrotation Yrotation Xrotation
					JOINT LeftHand
					{
						OFFSET 3.483560 -0.000000 -0.000000 
						CHANNELS 3 Zrotation Yrotation Xrotation
						JOINT LeftHandIndex1
						{
							OFFSET 0.715260 -0.000000 -0.000000 
							CHANNELS 3 Zrotation Yrotation Xrotation
							End Site
							{
								OFFSET 0.000000 0.000000 0.000000 
							}
						}
					}
				}
			}
			JOINT RightArm
			{
				OFFSET -3.136600 1.374050 -0.404650 
				CHANNELS 3 Zrotation Yrotation Xrotation
				JOINT RightForeArm
				{
					OFFSET -5.241900 -0.000000 -0.000000 
					CHANNELS 3 Zrotation Yrotation Xrotation
					JOINT RightHand
					{
						OFFSET -3.444170 -0.000000 -0.000000 
						CHANNELS 3 Zrotation Yrotation Xrotation
						JOINT RightHandIndex1
						{
							OFFSET -0.622530 -0.000000 -0.000000 
							CHANNELS 3 Zrotation Yrotation Xrotation
							End Site
							{
								OFFSET 0.000000 0.000000 0.000000 
							}
						}
					}
				}
			}
		}
	}
}
MOTION
Frames: 12
Frame Time: 0.041667
-1.253205 9.122004 -22.289675 -109.150873 -32.645398 133.469052 -2.054288 23.057672 -62.578398 30.907354 15.672015 127.910902 6.000026 -15.148964 55.005650 0.973900 6.282400 17.606000 20.473530 -16.860689 -81.148501 -12.041552 -17.686910 55.662280 -1.760650 -13.317102 45.486069 -2.123800 9.119400 -26.169500 2.050055 0.788686 -2.210272 7.264156 -2.347172 -7.713269 21.385082 -17.794282 -1.438561 9.882500 -8.732300 5.457500 -49.885905 -0.439066 21.846961 51.200340 -48.447065 -40.497525 -1.629496 0.597275 49.291288 -7.125000 0.000000 0.000000 21.840706 21.289856 -15.540704 -46.566211 41.833160 -37.460482 2.198771 4.386640 -12.429157 7.125000 0.000000 0.000000 
-1.235168 9.358702 -22.636478 -109.885763 -34.568187 134.209052 -1.455454 23.523915 -61.986885 30.830895 15.814017 127.627549 5.952449 -16.349931 55.287748 0.777300 5.629200 15.712200 21.348712 -16.552874 -83.700067 -12.641218 -18.084297 57.935056 -1.682650 -12.791342 44.794061 -2.264300 9.396200 -27.042900 1.962474 0.564798 -2.172394 7.324997 -2.396409 -7.634901 21.498113 -17.884557 -1.731765 10.057000 -8.785800 5.268600 -48.458194 -0.940194 21.571881 47.979472 -47.158289 -37.490792 -1.649107 0.819827 47.867858 -7.125000 0.000000 0.000000 23.476890 21.080959 -14.400751 -47.692916 42.503533 -38.590054 2.177019 4.279353 -11.483186 7.125000 0.000000 0.000000 
-1.219897 9.581347 -22.984387 -110.758563 -36.448947 134.998312 -0.875861 23.878361 -61.220929 30.702896 15.994085 127.184613 5.904036 -17.704247 55.803930 0.697200 5.337500 14.873700 22.103655 -16.175201 -86.146592 -13.268146 -18.473571 60.332399 -1.657952 -12.095610 44.177215 -2.425800 9.701800 -28.016400 1.875590 0.344919 -2.134102 7.382882 -2.447668 -7.554048 21.557972 -17.989161 -1.975645 10.206600 -8.841600 5.090000 -47.004374 -1.626599 21.341514 44.411149 -45.669098 -34.157878 -1.695404 1.087246 46.505662 -7.125000 0.000000 0.000000 25.000362 20.747374 -13.270584 -48.699069 43.125498 -39.621873 2.162238 4.174453 -10.520521 7.125000 0.000000 0.000000 
-1.208831 9.789937 -23.330416 -111.792230 -38.271486 135.883675 -0.351288 24.110313 -60.297989 30.522893 16.205645 126.567468 5.854717 -19.070293 56.507765 0.706300 5.371400 14.970900 22.760951 -15.732099 -88.485682 -13.914443 -18.845348 62.799172 -1.690623 -11.284854 43.692354 -2.560100 9.946300 -28.803000 1.787752 0.128499 -2.096758 7.432428 -2.498042 -7.470243 21.571558 -18.108359 -2.160167 10.334300 -8.898100 4.936600 -45.538626 -2.483644 21.162289 40.568401 -43.969831 -30.605072 -1.787308 1.395128 45.129024 -7.125000 0.000000 0.000000 26.395147 20.301850 -12.174688 -49.566144 43.689429 -40.537195 2.148482 4.075428 -9.585323 7.125000 0.000000 0.000000 
-1.202523 9.985471 -23.672239 -112.953903 -40.012412 136.864600 0.129645 24.212112 -59.239271 30.293638 16.443430 125.772480 5.803379 -20.356548 57.327657 0.715300 5.404700 15.066600 23.389096 -15.249286 -90.715981 -14.551860 -19.189384 65.286620 -1.806753 -10.261139 43.410785 -2.674100 10.147900 -29.456900 1.700357 -0.084762 -2.061333 7.467394 -2.549510 -7.377856 21.545455 -18.245679 -2.278332 10.440500 -8.954100 4.828800 -44.099859 -3.479894 21.053176 36.594184 -42.070425 -26.995350 -1.945873 1.731829 43.664173 -7.125000 0.000000 0.000000 27.644567 19.766920 -11.143224 -50.285807 44.187881 -41.326052 2.133104 3.985361 -8.715077 7.125000 0.000000 0.000000 
-1.201528 10.169274 -24.006870 -114.236481 -41.702251 137.939789 0.513855 24.112234 -58.052015 30.008253 16.697442 124.789975 5.746286 -21.441988 58.149813 0.710400 5.386600 15.014500 23.985387 -14.768108 -92.831920 -15.185864 -19.500049 67.762681 -1.978500 -9.124839 43.308821 -2.733800 10.251000 -29.793500 1.614349 -0.311527 -2.030317 7.486418 -2.605415 -7.285656 21.488486 -18.398585 -2.343578 10.526200 -9.010300 4.758000 -42.725069 -4.579424 21.060686 32.653411 -40.000047 -23.497799 -2.178244 2.085250 42.057899 -7.125000 0.000000 0.000000 28.740542 19.157016 -10.201903 -50.846080 44.612388 -41.972704 2.117104 3.906305 -7.936749 7.125000 0.000000 0.000000 
-1.205954 10.343339 -24.333754 -115.599092 -43.322463 139.076311 0.835352 23.834337 -56.751506 29.672099 16.965668 123.627718 5.689986 -22.341614 58.979701 0.697000 5.336900 14.871900 24.598888 -14.302043 -94.809236 -15.817785 -19.775749 70.203688 -2.162792 -7.984936 43.295987 -2.735400 10.253900 -29.803000 1.530956 -0.549103 -2.005173 7.476648 -2.665599 -7.200089 21.411178 -18.562856 -2.367567 10.595800 -9.065900 4.722000 -41.467178 -5.723782 21.221967 28.926076 -37.824758 -20.272928 -2.485168 2.434243 40.326497 -7.125000 0.000000 0.000000 29.689617 18.495126 -9.363074 -51.246681 44.958268 -42.469572 2.102831 3.840703 -7.287233 7.125000 0.000000 0.000000 
-1.215913 10.509106 -24.653557 -117.039631 -44.886178 140.264902 1.082853 23.383686 -55.348798 29.284297 17.244507 122.295491 5.637125 -23.106542 59.859582 0.700000 5.348100 14.904100 25.220035 -13.862990 -96.628128 -16.451408 -20.015008 72.595397 -2.317498 -6.948441 43.255734 -2.705200 10.201800 -29.632600 1.451764 -0.801326 -1.984909 7.442235 -2.729902 -7.120516 21.319382 -18.724348 -2.362077 10.652800 -9.117900 4.703200 -40.381375 -6.853310 21.549887 25.538559 -35.625246 -17.415968 -2.855110 2.752400 38.549208 -7.125000 0.000000 0.000000 30.510389 17.804063 -8.616016 -51.496615 45.228270 -42.813567 2.093621 3.791459 -6.787906 7.125000 0.000000 0.000000 
-1.230741 10.667900 -24.967384 -118.539747 -46.399055 141.465395 1.282524 22.779151 -53.842472 28.854164 17.530500 120.819391 5.594154 -23.803631 60.870999 0.744800 5.512700 15.377000 25.854806 -13.471829 -98.248633 -17.082987 -20.215830 74.915331 -2.411119 -6.093409 43.080519 -2.678800 10.156100 -29.483600 1.379268 -1.075298 -1.970490 7.384767 -2.802168 -7.052768 21.213715 -18.871044 -2.334197 10.695100 -9.161700 4.694400 -39.522581 -7.920493 22.007296 22.557405 -33.481527 -14.963292 -3.261036 3.018301 36.825425 -7.125000 0.000000 0.000000 31.217126 17.118569 -7.948324 -51.606379 45.422148 -43.001382 2.091653 3.758678 -6.454370 7.125000 0.000000 0.000000 
-1.249553 10.819945 -25.276895 -120.071756 -47.819411 142.685581 1.490497 22.117260 -52.304099 28.409939 17.816838 119.249756 5.577418 -24.489849 62.126919 0.856000 5.900400 16.495600 26.543188 -13.080402 -99.662790 -17.703828 -20.380865 77.128390 -2.421926 -5.508378 42.699073 -2.672300 10.144700 -29.446600 1.315281 -1.347978 -1.962278 7.293517 -2.873360 -6.999060 21.086418 -18.996185 -2.288675 10.713200 -9.196000 4.685300 -38.929827 -8.895171 22.533917 19.986014 -31.452518 -12.898060 -3.666116 3.221453 35.272355 -7.125000 0.000000 0.000000 31.826264 16.453671 -7.343073 -51.591314 45.545385 -43.041011 2.097934 3.742358 -6.296010 7.125000 0.000000 0.000000 
-1.272570 10.965350 -25.582976 -121.671990 -49.169001 143.954735 1.680818 21.414371 -50.744145 27.969135 18.093935 117.618078 5.595204 -25.134793 63.639215 1.043600 6.496700 18.232600 27.239079 -12.693049 -100.845386 -18.299687 -20.510892 79.190127 -2.359503 -5.191501 42.133794 -2.700900 10.194300 -29.608300 1.262079 -1.649187 -1.957357 7.185775 -2.956468 -6.936619 20.934615 -19.081071 -2.219694 10.714300 -9.210000 4.682400 -38.643078 -9.759644 22.992042 17.779970 -29.560415 -11.168134 -4.044203 3.349558 33.997594 -7.125000 0.000000 0.000000 32.321379 15.870835 -6.769707 -51.467761 45.600486 -42.935828 2.112261 3.741674 -6.306687 7.125000 0.000000 0.000000 
-1.299792 11.104336 -25.886732 -123.364355 -50.456903 145.408024 1.834560 20.722734 -49.186025 27.561482 18.371135 115.950430 5.653513 -25.698743 65.383267 1.296600 7.214400 20.352100 27.902925 -12.320459 -101.790988 -18.855357 -20.623454 81.050373 -2.237652 -5.128878 41.438968 -2.689800 10.175100 -29.545600 1.208017 -1.938550 -1.714889 7.134857 -3.069400 -6.721895 20.762873 -19.123600 -2.100929 10.698200 -9.204100 4.687700 -38.664690 -10.475958 23.308384 15.854610 -27.820562 -9.699219 -4.355183 3.409939 33.076510 -7.125000 0.000000 0.000000 32.743955 15.332662 -6.158558 -51.263433 45.652711 -42.717453 2.130392 3.755331 -6.457394 7.125000 0.000000 0.000000 
